<svg xmlns="http://www.w3.org/2000/svg" version="1.1" xmlns:xlink="http://www.w3.org/1999/xlink" xmlns:svgjs="http://svgjs.com/svgjs" width="1000" height="1000"><rect width="1000" height="1000" rx="200" ry="200" fill="#f3c4ea"></rect><g transform="matrix(1,0,0,1,0,0)"><svg xmlns="http://www.w3.org/2000/svg" version="1.1" xmlns:xlink="http://www.w3.org/1999/xlink" xmlns:svgjs="http://svgjs.com/svgjs" width="900.000000pt" height="500.000000pt"><svg version="1.0" xmlns="http://www.w3.org/2000/svg" width="900.000000pt" height="500.000000pt" viewBox="0 0 900.000000 500.000000" preserveAspectRatio="xMidYMid meet">

<g transform="translate(0.000000,500.000000) scale(0.100000,-0.100000)" fill="#000000" stroke="none">
<path d="M4230 4782 c-36 -10 -119 -42 -186 -70 -82 -35 -150 -56 -215 -68
-237 -40 -340 -108 -388 -257 -29 -90 -34 -155 -21 -244 19 -127 60 -222 205
-478 34 -60 76 -137 93 -171 33 -66 76 -184 69 -190 -13 -13 -137 146 -255
326 -194 294 -277 370 -405 370 -70 0 -110 -16 -202 -80 -39 -26 -145 -84
-236 -128 -187 -90 -243 -135 -287 -230 -26 -56 -27 -62 -27 -248 l0 -192 -67
-98 c-77 -113 -97 -161 -105 -255 -11 -130 51 -262 184 -390 141 -136 251
-188 413 -196 128 -6 222 12 489 92 207 62 317 85 400 85 l56 -1 -57 -30 c-32
-16 -172 -67 -312 -114 -292 -97 -376 -133 -492 -210 -173 -115 -264 -274
-264 -459 0 -89 25 -142 93 -199 28 -23 70 -61 94 -83 41 -39 43 -44 43 -100
0 -74 23 -180 48 -230 48 -93 125 -142 244 -154 98 -10 115 -23 188 -159 66
-121 93 -156 149 -189 44 -26 53 -27 181 -28 147 0 165 -6 268 -76 107 -73
265 -128 372 -128 192 0 323 74 395 225 60 124 70 207 68 565 -1 173 2 331 6
350 5 20 9 26 10 15 2 -32 74 -240 119 -340 134 -303 338 -553 528 -647 86
-42 90 -43 188 -43 93 0 105 2 155 30 81 45 149 149 166 255 4 25 13 55 21 68
15 22 17 23 143 16 106 -6 136 -4 178 10 175 58 265 288 267 681 1 139 1 141
-32 207 -42 86 -129 173 -219 220 -86 45 -117 54 -299 79 -184 25 -296 61
-466 147 -133 67 -254 140 -246 147 7 8 176 -34 323 -81 250 -79 345 -104 450
-120 219 -34 399 19 543 159 99 97 137 194 126 322 -6 74 -7 70 62 255 54 144
-3 273 -176 400 -91 65 -119 106 -175 250 -35 90 -57 132 -91 169 -98 108
-235 115 -431 21 -281 -136 -519 -378 -711 -722 -39 -69 -40 -81 -9 -69 52 20
221 51 333 61 88 9 149 9 237 0 158 -15 184 -25 87 -34 -265 -25 -507 -77
-683 -146 -142 -56 -143 -57 -51 -65 118 -10 279 -34 369 -55 92 -22 249 -70
243 -75 -2 -2 -51 3 -108 10 -165 23 -382 29 -485 16 -113 -15 -220 -51 -293
-98 l-57 -36 95 -44 c242 -112 437 -286 571 -508 22 -37 16 -33 -75 44 -180
152 -374 267 -547 326 l-70 24 69 -77 c122 -137 181 -228 230 -352 51 -128 47
-128 -39 -10 -92 127 -278 321 -379 394 -75 55 -68 59 -130 -70 -66 -138 -122
-363 -136 -553 -4 -53 -10 -87 -15 -79 -4 8 -13 71 -20 141 -10 99 -10 154 -1
246 10 101 52 299 78 365 6 16 4 17 -12 8 -11 -6 -59 -45 -108 -87 -101 -89
-235 -243 -382 -439 -57 -77 -104 -135 -104 -130 0 5 30 68 66 139 93 184 201
341 321 466 l103 106 -57 -9 c-169 -26 -343 -116 -648 -334 -40 -29 -31 -17
45 57 212 209 435 361 630 430 36 12 67 24 69 26 8 6 -83 94 -164 158 -145
113 -337 218 -577 315 -59 24 -106 45 -104 47 8 8 243 -50 340 -83 102 -36
304 -129 386 -180 35 -22 42 -23 30 -8 -123 160 -321 329 -622 530 -78 52
-139 94 -136 94 22 0 203 -72 307 -121 230 -110 400 -243 511 -401 58 -82 59
-78 30 77 -23 115 -73 269 -126 384 -39 86 -26 80 55 -24 70 -89 109 -156 153
-258 l39 -92 -6 95 c-11 170 -71 418 -146 599 l-19 46 40 -45 c123 -137 219
-361 237 -555 8 -89 17 -62 34 104 16 161 -1 436 -37 588 -6 25 -5 26 9 13 30
-29 96 -166 123 -255 27 -85 28 -101 28 -280 0 -139 -4 -208 -16 -258 -9 -38
-12 -65 -8 -60 4 4 57 83 117 174 174 264 283 493 345 722 19 69 22 109 23
247 0 147 -3 173 -23 235 -52 157 -143 247 -294 294 -93 28 -114 40 -215 126
-125 106 -188 138 -283 142 -51 2 -96 -3 -140 -15z"></path>
<path d="M5844 4646 c-30 -30 -34 -40 -34 -84 0 -39 6 -57 25 -80 25 -30 25
-31 8 -66 -19 -41 -33 -46 -33 -13 -1 30 -33 98 -57 120 -33 29 -86 33 -126 8
-68 -42 -76 -141 -16 -194 28 -26 37 -29 93 -25 60 3 61 2 64 -24 2 -15 -11
-54 -31 -95 -34 -67 -35 -67 -42 -38 -15 68 -28 96 -55 125 -23 25 -36 30 -72
30 -69 0 -118 -50 -118 -120 0 -77 56 -123 143 -118 50 3 52 2 55 -24 2 -18
-12 -56 -41 -108 l-44 -81 -6 50 c-7 59 -38 123 -69 145 -35 25 -100 21 -132
-9 -46 -43 -57 -94 -31 -149 24 -49 66 -69 130 -61 43 5 54 3 58 -10 10 -24
-25 -103 -104 -232 -228 -374 -489 -704 -708 -897 -93 -81 -194 -193 -220
-243 -20 -39 -14 -81 16 -100 35 -23 117 -22 163 1 109 57 252 211 399 430
165 246 371 591 508 851 68 130 83 137 122 60 43 -84 117 -101 177 -41 30 30
34 40 34 85 0 42 -5 56 -31 86 -28 31 -36 35 -80 35 -27 0 -66 -7 -86 -15 -20
-8 -37 -14 -38 -13 -6 7 81 173 92 176 7 2 23 -20 36 -50 26 -58 54 -78 112
-78 102 0 142 154 57 220 -29 23 -89 26 -145 6 -37 -13 -37 -13 -31 8 12 37
52 112 68 125 20 17 32 8 55 -44 36 -82 123 -104 182 -46 25 26 29 37 29 86 0
51 -3 60 -34 91 -27 27 -42 34 -73 34 -46 -1 -107 -22 -135 -47 -16 -13 -20
-14 -16 -3 3 8 14 41 24 73 15 47 21 57 40 57 98 0 142 144 65 212 -46 41
-102 39 -147 -6z"></path>
</g>
</svg></svg></g></svg>